<svg width="16" height="13" viewBox="0 0 16 13" fill="none" xmlns="http://www.w3.org/2000/svg">
<path d="M8.50081 0.562304C8.50081 1.00302 8.50081 1.44374 8.50081 1.89781C8.76937 1.88232 8.76937 1.88232 9.04336 1.86651C10.6999 1.87529 12.1845 2.41893 13.509 3.40026C13.6217 3.51841 13.7345 3.63655 13.8507 3.75827C14.3096 4.19425 14.7295 4.18759 15.3453 4.23496C15.5331 4.86098 15.5331 4.86098 15.3453 5.23659C10.4974 5.23659 5.64949 5.23659 0.654684 5.23659C0.487745 4.56884 0.487745 4.56884 0.654684 4.23496C0.823397 4.22463 0.992109 4.2143 1.16593 4.20366C1.76302 4.13799 2.03661 3.92337 2.47014 3.51503C3.68223 2.37535 5.27366 1.88276 6.92532 1.87695C7.1147 1.88383 7.30407 1.89072 7.49918 1.89781C7.49918 1.4571 7.49918 1.01638 7.49918 0.562304C7.91501 0.354388 8.06857 0.432633 8.50081 0.562304ZM3.65958 4.23496C6.52425 4.23496 9.38892 4.23496 12.3404 4.23496C11.162 3.05655 9.58567 2.99467 7.99999 2.98292C6.41432 2.99467 4.83799 3.05655 3.65958 4.23496Z" fill="black"/>
<path d="M1.99019 5.90434C2.32073 5.90434 2.65127 5.90434 2.99182 5.90434C2.99426 6.04663 2.99669 6.18891 2.9992 6.33551C3.00942 6.86603 3.02181 7.39645 3.03564 7.92689C3.04117 8.15597 3.04585 8.38508 3.04966 8.6142C3.05529 8.94453 3.06428 9.27479 3.07334 9.60504C3.07771 9.80349 3.08208 10.0019 3.08658 10.2064C3.16507 10.7927 3.29872 11.1148 3.65958 11.5803C4.12898 11.7367 4.42269 11.7699 4.90893 11.7741C5.13545 11.7765 5.13545 11.7765 5.36654 11.779C5.61069 11.78 5.61069 11.78 5.85978 11.7811C6.02754 11.7821 6.1953 11.783 6.36814 11.784C6.72317 11.7856 7.0782 11.7867 7.43323 11.7873C7.97585 11.7889 8.51836 11.7941 9.06096 11.7994C9.40592 11.8005 9.75089 11.8013 10.0959 11.802C10.2579 11.804 10.42 11.8061 10.587 11.8082C11.7164 11.809 11.7164 11.809 12.6743 11.2464C12.8616 10.6846 12.8759 10.2296 12.894 9.63764C12.901 9.42083 12.908 9.20403 12.9152 8.98065C12.9219 8.75165 12.9285 8.52265 12.9351 8.29365C12.9423 8.0627 12.9496 7.83174 12.957 7.60079C12.9747 7.03533 12.9917 6.46985 13.0082 5.90434C13.3387 5.90434 13.6692 5.90434 14.0098 5.90434C14.0098 6.1247 14.0098 6.34506 14.0098 6.5721C14.4505 6.5721 14.8912 6.5721 15.3453 6.5721C15.5331 7.19812 15.5331 7.19812 15.3453 7.57373C14.9046 7.57373 14.4639 7.57373 14.0098 7.57373C14.015 7.74792 14.015 7.74792 14.0204 7.92562C14.0343 8.45519 14.043 8.98472 14.0515 9.51439C14.0571 9.69709 14.0627 9.8798 14.0685 10.068C14.0812 11.1205 14.0841 11.8009 13.342 12.5819C12.8064 12.9186 12.3834 12.9593 11.7562 12.9643C11.5723 12.9664 11.3884 12.9685 11.199 12.9707C11.0011 12.9711 10.8032 12.9715 10.5993 12.9719C10.3951 12.973 10.1909 12.9741 9.98055 12.9752C9.54863 12.9769 9.1167 12.9777 8.68478 12.9776C8.02453 12.9784 7.36447 12.9844 6.70426 12.9908C6.28452 12.9917 5.86478 12.9924 5.44504 12.9927C5.24782 12.9951 5.05059 12.9975 4.84739 13C3.79851 12.9942 3.10173 12.9889 2.32407 12.248C1.94868 11.7253 1.95085 11.2717 1.95758 10.6386C1.95866 10.46 1.95974 10.2814 1.96084 10.0974C1.96364 9.91188 1.96644 9.72638 1.96932 9.53526C1.97083 9.34718 1.97234 9.1591 1.97389 8.96532C1.97782 8.50142 1.98331 8.03759 1.99019 7.57373C1.54947 7.57373 1.10875 7.57373 0.654679 7.57373C0.466873 6.94771 0.466873 6.94771 0.654679 6.5721C1.0954 6.5721 1.53612 6.5721 1.99019 6.5721C1.99019 6.35174 1.99019 6.13138 1.99019 5.90434Z" fill="black"/>
<path d="M8 6.23822V10.2448" stroke="black" stroke-width="1.2"/>
<path d="M5.99673 8.24149H10.0033" stroke="black" stroke-width="1.2"/>
</svg>
